<svg width="39" height="35" viewBox="0 0 39 35" fill="none" xmlns="http://www.w3.org/2000/svg">
<path d="M38.854 2.145L30.2983 20.1113C30.2895 20.133 30.2794 20.1543 30.2683 20.175L23.854 33.645C23.7723 33.8277 23.655 33.9921 23.5088 34.1288C23.3627 34.2654 23.1907 34.3714 23.003 34.4405C22.8153 34.5097 22.6156 34.5406 22.4157 34.5314C22.2159 34.5223 22.0199 34.4732 21.8393 34.3872C21.6587 34.3011 21.4971 34.1798 21.3641 34.0304C21.2311 33.8809 21.1293 33.7064 21.0647 33.517C21.0002 33.3277 20.9741 33.1273 20.9882 32.9278C21.0022 32.7282 21.056 32.5335 21.1465 32.355L26.554 21H1.5002C1.20336 21.0002 0.913122 20.9124 0.666231 20.7476C0.419341 20.5828 0.2269 20.3484 0.113271 20.0742C-0.000357822 19.8 -0.0300648 19.4982 0.0279108 19.207C0.0858864 18.9159 0.228938 18.6485 0.438955 18.4388L8.37958 10.5L0.438955 2.56125C0.228938 2.35147 0.0858864 2.08409 0.0279108 1.79296C-0.0300648 1.50183 -0.000357822 1.20005 0.113271 0.925815C0.2269 0.651581 0.419341 0.417226 0.666231 0.25242C0.913122 0.0876138 1.20336 -0.000233141 1.5002 4.64701e-07H37.5002C37.7534 8.37358e-05 38.0025 0.064265 38.2242 0.186564C38.4459 0.308862 38.6331 0.485298 38.7682 0.699428C38.9033 0.913559 38.9821 1.15842 38.9971 1.41118C39.0121 1.66395 38.9628 1.9164 38.854 2.145Z" fill="#0995D4"/>
</svg>


<svg viewBox="0 0 253 318" fill="none" xmlns="http://www.w3.org/2000/svg">
<path d="M252.5 126.5V317.5H0.5V126.5C0.5 56.9121 56.9121 0.5 126.5 0.5C196.088 0.5 252.5 56.9121 252.5 126.5Z" stroke="url(#paint0_linear_2008_66)" class="svg-elem-1"></path>
<defs>
<linearGradient id="paint0_linear_2008_66" x1="13.5" y1="307" x2="296.5" y2="184" gradientUnits="userSpaceOnUse">
<stop offset="0.480284" stop-color="#C3937C"></stop>
<stop offset="1" stop-color="white"></stop>
</linearGradient>
</defs>
</svg>
